<svg width="658" height="112" viewBox="0 0 658 112" fill="none" xmlns="http://www.w3.org/2000/svg">
<path d="M0 56.0007C0 122.945 81.6453 119.26 111.44 99.1891V79.1304C80.4207 103.292 17.5488 101.24 17.5488 56.0007C17.5488 10.761 80.4207 8.70965 111.44 32.8588V12.8C81.6453 -7.25876 0 -10.9438 0 56.0007Z" fill="#B20B14"/>
<path d="M111.44 57.2161H53.2709V74.204H111.44V57.2161Z" fill="#B20B14"/>
<path d="M528.252 1.89165H511.119V109.298H528.252V1.89165Z" fill="#B20B14"/>
<path d="M319.65 2.1496L340.677 62.1417H293.725L314.752 2.1496H295.17L257.709 109.015H277.303L287.822 78.9822V79.1296H346.628L357.111 109.015H376.693L339.232 2.1496H319.65Z" fill="#B20B14"/>
<path d="M203.017 1.89165H140.709V109.322H157.853V69.3152H193.98L219.856 108.757H239.45L212.753 68.0623C246.418 58.862 243.173 1.89165 203.017 1.89165ZM157.841 19.0884H203.017C224.154 19.0884 224.154 52.143 203.017 52.143H157.841V19.0884Z" fill="#B20B14"/>
<path d="M635.969 2.56723L605.39 41.8372L574.812 2.56723H552.781L594.369 56L552.781 109.433H574.812L605.39 70.1505L635.969 109.433H658L616.412 56L658 2.56723H635.969Z" fill="#B20B14"/>
<path d="M406.402 1.89165H399.054V109.285H416.199V85.2713V67.1902V66.8585H481.349V49.6741H416.199V47.5367V38.5944V19.0761H487.606V1.89165H416.199H406.402Z" fill="#B20B14"/>
</svg>
